<svg width="30" height="30" viewBox="0 0 30 30" fill="none" xmlns="http://www.w3.org/2000/svg">
<mask id="path-1-inside-1_0:903" fill="white">
<path d="M29.1667 21.9698V26.2198C29.1683 26.6144 29.0874 27.0049 28.9294 27.3664C28.7713 27.7279 28.5395 28.0524 28.2488 28.3191C27.958 28.5858 27.6148 28.7889 27.241 28.9153C26.8673 29.0417 26.4713 29.0887 26.0783 29.0531C21.719 28.5795 17.5316 27.0898 13.8525 24.704C10.4296 22.5289 7.52755 19.6269 5.35249 16.204C2.95829 12.5082 1.46833 8.30039 1.00332 3.92148C0.967918 3.52972 1.01448 3.13489 1.14003 2.76211C1.26558 2.38934 1.46738 2.04679 1.73257 1.75628C1.99776 1.46576 2.32054 1.23365 2.68036 1.07472C3.04017 0.915786 3.42914 0.833516 3.82249 0.833145H8.07249C8.76 0.826379 9.42653 1.06984 9.94782 1.51815C10.4691 1.96646 10.8096 2.58903 10.9058 3.26981C11.0852 4.62991 11.4179 5.96534 11.8975 7.25065C12.0881 7.7577 12.1293 8.30877 12.0164 8.83856C11.9034 9.36834 11.6409 9.85464 11.26 10.2398L9.46082 12.039C11.4775 15.5857 14.4141 18.5223 17.9608 20.539L19.76 18.7398C20.1452 18.3589 20.6315 18.0964 21.1612 17.9834C21.691 17.8705 22.2421 17.9117 22.7492 18.1023C24.0345 18.5819 25.3699 18.9146 26.73 19.094C27.4182 19.1911 28.0466 19.5377 28.4959 20.0679C28.9452 20.5982 29.1839 21.275 29.1667 21.9698Z"/>
</mask>
<path d="M29.1667 21.9698L22.1688 21.7962C22.1674 21.854 22.1667 21.9119 22.1667 21.9698H29.1667ZM29.1667 26.2198H22.1667C22.1667 26.2293 22.1667 26.2388 22.1667 26.2482L29.1667 26.2198ZM26.0783 29.0531L25.3222 36.0122C25.3642 36.0167 25.4062 36.0209 25.4483 36.0247L26.0783 29.0531ZM13.8525 24.704L17.6612 18.8308C17.6431 18.8191 17.6249 18.8075 17.6067 18.7959L13.8525 24.704ZM5.35249 16.204L11.2606 12.4497C11.2496 12.4325 11.2386 12.4152 11.2274 12.3981L5.35249 16.204ZM1.00332 3.92148L-5.96827 4.55148C-5.96498 4.58791 -5.9614 4.62431 -5.95754 4.66068L1.00332 3.92148ZM3.82249 0.833145V-6.16686L3.81589 -6.16685L3.82249 0.833145ZM8.07249 0.833145V7.83315C8.09545 7.83315 8.11842 7.83303 8.14138 7.83281L8.07249 0.833145ZM10.9058 3.26981L17.8457 2.35451C17.8429 2.33304 17.84 2.31159 17.8369 2.29015L10.9058 3.26981ZM11.8975 7.25065L5.33921 9.69788C5.34117 9.70315 5.34314 9.70841 5.34512 9.71367L11.8975 7.25065ZM11.26 10.2398L16.2097 15.1896C16.219 15.1803 16.2282 15.1711 16.2374 15.1618L11.26 10.2398ZM9.46082 12.039L4.51107 7.08923C2.28288 9.31742 1.81817 12.7598 3.37576 15.499L9.46082 12.039ZM17.9608 20.539L14.5008 26.624C17.24 28.1816 20.6824 27.7169 22.9106 25.4887L17.9608 20.539ZM19.76 18.7398L14.838 13.7624C14.8287 13.7716 14.8195 13.7808 14.8102 13.7901L19.76 18.7398ZM22.7492 18.1023L20.2861 24.6547C20.2914 24.6567 20.2967 24.6586 20.3019 24.6606L22.7492 18.1023ZM26.73 19.094L27.7078 12.1626C27.687 12.1597 27.6662 12.1568 27.6453 12.1541L26.73 19.094ZM22.1667 21.9698V26.2198H36.1667V21.9698H22.1667ZM22.1667 26.2482C22.1644 25.668 22.2832 25.0937 22.5156 24.5621L35.3431 30.1707C35.8917 28.9161 36.1722 27.5607 36.1666 26.1914L22.1667 26.2482ZM22.5156 24.5621C22.7481 24.0305 23.089 23.5532 23.5165 23.161L32.981 33.4772C33.99 32.5515 34.7945 31.4253 35.3431 30.1707L22.5156 24.5621ZM23.5165 23.161C23.9441 22.7688 24.4488 22.4701 24.9985 22.2843L29.4836 35.5464C30.7808 35.1077 31.972 34.4029 32.981 33.4772L23.5165 23.161ZM24.9985 22.2843C25.5481 22.0984 26.1305 22.0293 26.7084 22.0816L25.4483 36.0247C26.812 36.148 28.1865 35.9851 29.4836 35.5464L24.9985 22.2843ZM26.8345 22.0941C23.5636 21.7387 20.4217 20.621 17.6612 18.8308L10.0438 30.5771C14.6415 33.5587 19.8744 35.4202 25.3222 36.0122L26.8345 22.0941ZM17.6067 18.7959C15.0512 17.172 12.8845 15.0053 11.2606 12.4497L-0.55561 19.9582C2.1706 24.2485 5.80798 27.8859 10.0982 30.6121L17.6067 18.7959ZM11.2274 12.3981C9.43103 9.62506 8.31309 6.46786 7.96418 3.18228L-5.95754 4.66068C-5.37643 10.1329 -3.51445 15.3913 -0.522472 20.0099L11.2274 12.3981ZM7.97491 3.29148C8.02697 3.86759 7.95851 4.44823 7.77387 4.99642L-5.49381 0.527802C-5.92955 1.82155 -6.09114 3.19186 -5.96827 4.55148L7.97491 3.29148ZM7.77387 4.99642C7.58923 5.54462 7.29247 6.04837 6.90248 6.4756L-3.43734 -2.96305C-4.35772 -1.9548 -5.05807 -0.76595 -5.49381 0.527802L7.77387 4.99642ZM6.90248 6.4756C6.5125 6.90282 6.03782 7.24416 5.50868 7.47789L-0.147967 -5.32845C-1.39673 -4.77686 -2.51697 -3.9713 -3.43734 -2.96305L6.90248 6.4756ZM5.50868 7.47789C4.97954 7.71161 4.40753 7.8326 3.82908 7.83314L3.81589 -6.16685C2.45074 -6.16557 1.1008 -5.88004 -0.147967 -5.32845L5.50868 7.47789ZM3.82249 7.83315H8.07249V-6.16685H3.82249V7.83315ZM8.14138 7.83281C7.13032 7.84276 6.15014 7.48472 5.38354 6.82545L14.5121 -3.78915C12.7029 -5.34505 10.3897 -6.19 8.0036 -6.16652L8.14138 7.83281ZM5.38354 6.82545C4.61694 6.16617 4.11622 5.25062 3.97471 4.24947L17.8369 2.29015C17.503 -0.0725686 16.3213 -2.23325 14.5121 -3.78915L5.38354 6.82545ZM3.96592 4.18511C4.21433 6.06861 4.67503 7.91796 5.33921 9.69788L18.4558 4.80341C18.1607 4.01272 17.9561 3.1912 17.8457 2.35451L3.96592 4.18511ZM5.34512 9.71367C5.06482 8.968 5.00416 8.1576 5.17032 7.3785L18.8624 10.2986C19.2545 8.45995 19.1114 6.54741 18.4499 4.78762L5.34512 9.71367ZM5.17032 7.3785C5.33647 6.5994 5.72249 5.88427 6.28262 5.31784L16.2374 15.1618C17.5593 13.825 18.4703 12.1373 18.8624 10.2986L5.17032 7.3785ZM6.31024 5.29006L4.51107 7.08923L14.4106 16.9887L16.2097 15.1896L6.31024 5.29006ZM3.37576 15.499C6.01527 20.141 9.85877 23.9845 14.5008 26.624L21.4209 14.4539C18.9695 13.06 16.9398 11.0303 15.5459 8.57892L3.37576 15.499ZM22.9106 25.4887L24.7097 23.6896L14.8102 13.7901L13.0111 15.5892L22.9106 25.4887ZM24.682 23.7172C24.1155 24.2773 23.4004 24.6633 22.6213 24.8295L19.7012 11.1374C17.8625 11.5295 16.1748 12.4405 14.838 13.7624L24.682 23.7172ZM22.6213 24.8295C21.8422 24.9956 21.0318 24.935 20.2861 24.6547L25.2122 11.5499C23.4524 10.8884 21.5398 10.7453 19.7012 11.1374L22.6213 24.8295ZM20.3019 24.6606C22.0818 25.3248 23.9312 25.7855 25.8147 26.0339L27.6453 12.1541C26.8086 12.0437 25.9871 11.8391 25.1964 11.544L20.3019 24.6606ZM25.7521 26.0253C24.7401 25.8826 23.8159 25.3728 23.1552 24.5931L33.8366 15.5428C32.2774 13.7025 30.0962 12.4996 27.7078 12.1626L25.7521 26.0253ZM23.1552 24.5931C22.4945 23.8133 22.1435 22.8179 22.1688 21.7962L36.1645 22.1434C36.2243 19.7322 35.3959 17.3831 33.8366 15.5428L23.1552 24.5931Z" fill="#FCFCFC" mask="url(#path-1-inside-1_0:903)"/>
</svg>
